<svg width="25" height="25" viewBox="0 0 25 25" fill="none" xmlns="http://www.w3.org/2000/svg">
<g id="mdi:instagram">
<path id="Vector" d="M7.90133 2.00781H16.4106C19.6522 2.00781 22.2861 4.62813 22.2861 7.85313V16.3188C22.2861 17.869 21.667 19.3558 20.5652 20.452C19.4633 21.5482 17.9689 22.1641 16.4106 22.1641H7.90133C4.6597 22.1641 2.02588 19.5438 2.02588 16.3188V7.85313C2.02588 6.30285 2.6449 4.81607 3.74676 3.71986C4.84862 2.62366 6.34307 2.00781 7.90133 2.00781ZM7.69873 4.02344C6.73153 4.02344 5.80394 4.40569 5.12003 5.08609C4.43612 5.7665 4.0519 6.68932 4.0519 7.65156V16.5203C4.0519 18.5259 5.68284 20.1484 7.69873 20.1484H16.6132C17.5804 20.1484 18.508 19.7662 19.1919 19.0858C19.8758 18.4054 20.26 17.4826 20.26 16.5203V7.65156C20.26 5.64602 18.6291 4.02344 16.6132 4.02344H7.69873ZM17.4743 5.53516C17.8101 5.53516 18.1322 5.66788 18.3697 5.90413C18.6071 6.14039 18.7405 6.46081 18.7405 6.79492C18.7405 7.12903 18.6071 7.44946 18.3697 7.68571C18.1322 7.92196 17.8101 8.05469 17.4743 8.05469C17.1384 8.05469 16.8164 7.92196 16.5789 7.68571C16.3414 7.44946 16.208 7.12903 16.208 6.79492C16.208 6.46081 16.3414 6.14039 16.5789 5.90413C16.8164 5.66788 17.1384 5.53516 17.4743 5.53516ZM12.156 7.04688C13.4993 7.04688 14.7876 7.57777 15.7375 8.52278C16.6874 9.46779 17.221 10.7495 17.221 12.0859C17.221 13.4224 16.6874 14.7041 15.7375 15.6491C14.7876 16.5941 13.4993 17.125 12.156 17.125C10.8126 17.125 9.52432 16.5941 8.57444 15.6491C7.62456 14.7041 7.09093 13.4224 7.09093 12.0859C7.09093 10.7495 7.62456 9.46779 8.57444 8.52278C9.52432 7.57777 10.8126 7.04688 12.156 7.04688ZM12.156 9.0625C11.35 9.0625 10.577 9.38104 10.0071 9.94804C9.43713 10.515 9.11694 11.2841 9.11694 12.0859C9.11694 12.8878 9.43713 13.6568 10.0071 14.2238C10.577 14.7908 11.35 15.1094 12.156 15.1094C12.962 15.1094 13.735 14.7908 14.3049 14.2238C14.8748 13.6568 15.195 12.8878 15.195 12.0859C15.195 11.2841 14.8748 10.515 14.3049 9.94804C13.735 9.38104 12.962 9.0625 12.156 9.0625Z" fill="white"/>
</g>
</svg>
